<svg xmlns="http://www.w3.org/2000/svg" width="14.857" height="16" viewBox="0 0 14.857 16">
  <path id="icon-sacola" d="M4276.071,864.713a2.372,2.372,0,0,0-2.384-2.119h-.937v-.471a3.356,3.356,0,0,0-6.71,0v.471h-.866a2.372,2.372,0,0,0-2.384,2.119l-.789,7.764a2.378,2.378,0,0,0,2.4,2.353h10.065a2.385,2.385,0,0,0,2.4-2.4ZM4267,862.124a2.4,2.4,0,0,1,4.794,0v.471H4267Zm7.465,11.765H4264.4a1.423,1.423,0,0,1-1.441-1.365l.786-7.717a1.424,1.424,0,0,1,1.431-1.271h8.514a1.425,1.425,0,0,1,1.431,1.271l.784,7.67A1.427,1.427,0,0,1,4274.462,873.889Z" transform="translate(-4262 -858.83)" fill="#595959"/>
</svg>
