<svg xmlns="http://www.w3.org/2000/svg" width="20.104" height="20.108" viewBox="0 0 20.104 20.108">
  <path id="icon-whatsapp" d="M11026.449,7916.5a.132.132,0,0,0-.125-.012l-3.493,1.482a.371.371,0,0,1-.492-.47l1.343-3.632a.131.131,0,0,0-.014-.12,9.512,9.512,0,0,1,1.037-12.037,9.255,9.255,0,0,1,6.593-2.71,9.852,9.852,0,0,1,9.8,9.675,9.246,9.246,0,0,1-9.3,9.434A9.714,9.714,0,0,1,11026.449,7916.5Zm.408-.618a8.972,8.972,0,0,0,4.945,1.487,8.5,8.5,0,0,0,8.555-8.683,9.114,9.114,0,0,0-9.06-8.943,8.515,8.515,0,0,0-6.068,2.493,8.77,8.77,0,0,0-.948,11.1.878.878,0,0,1,.1.792l-1.046,2.827,2.7-1.147a.873.873,0,0,1,.822.075Zm1.737-4.253-.007-.008a8.924,8.924,0,0,1-2.64-5.738,3.546,3.546,0,0,1,2.369-3,.571.571,0,0,1,.058,0,1.323,1.323,0,0,1,.186.012.381.381,0,0,1,.218.123,2.913,2.913,0,0,1,.259.418c.072.127.162.285.275.474.065.11.151.24.241.378a13.169,13.169,0,0,1,.953,1.686.374.374,0,0,1-.056.308,3.857,3.857,0,0,1-.652.6c-.443.354-.521.5-.521.744a3.441,3.441,0,0,0,1.066,2.133,3.734,3.734,0,0,0,2.253,1.21c.14,0,.2-.05.441-.377.056-.074.118-.159.19-.249a3.655,3.655,0,0,1,.6-.654.371.371,0,0,1,.3-.056,11.507,11.507,0,0,1,1.609.875c.139.09.268.175.378.242.187.112.345.2.473.273a2.962,2.962,0,0,1,.419.26.376.376,0,0,1,.122.218,1.058,1.058,0,0,1,.013.186.394.394,0,0,1,0,.059c-.082.529-.987,2.5-2.79,2.5A8.719,8.719,0,0,1,11028.595,7911.627Zm-1.905-5.746a8.077,8.077,0,0,0,2.426,5.219,7.958,7.958,0,0,0,5.241,2.393c1.2,0,1.865-1.318,2.021-1.75l-.144-.083c-.133-.074-.3-.167-.492-.284-.123-.074-.26-.164-.4-.258-.262-.172-.894-.537-1.217-.7-.116.128-.257.3-.315.377s-.121.156-.176.23a1.255,1.255,0,0,1-1.034.676,4.566,4.566,0,0,1-2.777-1.428,4.085,4.085,0,0,1-1.283-2.656,1.624,1.624,0,0,1,.8-1.323c.071-.058.245-.2.371-.31-.175-.334-.574-.992-.775-1.3-.094-.145-.182-.279-.256-.4-.119-.2-.212-.362-.286-.493-.02-.036-.048-.086-.075-.134A2.89,2.89,0,0,0,11026.689,7905.881Z" transform="translate(-11021.496 -7898.5)" fill="#595959" stroke="rgba(0,0,0,0)" stroke-width="1"/>
</svg>
