<svg xmlns="http://www.w3.org/2000/svg" width="11" height="16" viewBox="0 0 11 16"><g><g><path fill="none" d="M5.168 3.2c.516 0 1 .198 1.367.556.363.355.565.83.565 1.335 0 .502-.202.977-.565 1.335a1.958 1.958 0 0 1-1.367.552c-.518 0-1-.197-1.365-.555a1.853 1.853 0 0 1 0-2.667 1.933 1.933 0 0 1 1.365-.555zm-1.86 3.707a2.652 2.652 0 0 0 1.86.753c.705 0 1.365-.266 1.86-.753.497-.484.77-1.131.77-1.816 0-.687-.273-1.335-.77-1.82a2.635 2.635 0 0 0-1.86-.751c-.701 0-1.361.265-1.86.751a2.521 2.521 0 0 0-.769 1.817v.003c0 .685.275 1.332.77 1.816zM1.98 1.977A4.53 4.53 0 0 1 5.166.684a4.52 4.52 0 0 1 3.186 1.291 4.319 4.319 0 0 1 1.322 3.115c0 3.33-3.176 8.396-4.508 10.036C3.836 13.487.658 8.424.658 5.091A4.335 4.335 0 0 1 1.98 1.976zm2.926 13.912a.36.36 0 0 0 .52 0c.521-.564 1.744-2.266 2.838-4.295.963-1.785 2.111-4.363 2.111-6.503a5.028 5.028 0 0 0-1.527-3.598A5.248 5.248 0 0 0 5.168 0h-.002a5.255 5.255 0 0 0-3.68 1.493A5.003 5.003 0 0 0-.039 5.09c0 2.14 1.148 4.718 2.11 6.503 1.093 2.029 2.318 3.735 2.835 4.295z"/><path fill="none" stroke="#595959" stroke-miterlimit="20" d="M5.168 3.2c.516 0 1 .198 1.367.556.363.355.565.83.565 1.335 0 .502-.202.977-.565 1.335a1.958 1.958 0 0 1-1.367.552c-.518 0-1-.197-1.365-.555a1.853 1.853 0 0 1 0-2.667 1.933 1.933 0 0 1 1.365-.555zm-1.86 3.707a2.652 2.652 0 0 0 1.86.753c.705 0 1.365-.266 1.86-.753.497-.484.77-1.131.77-1.816 0-.687-.273-1.335-.77-1.82a2.635 2.635 0 0 0-1.86-.751c-.701 0-1.361.265-1.86.751a2.521 2.521 0 0 0-.769 1.817v.003c0 .685.275 1.332.77 1.816zM1.98 1.977A4.53 4.53 0 0 1 5.166.684a4.52 4.52 0 0 1 3.186 1.291 4.319 4.319 0 0 1 1.322 3.115c0 3.33-3.176 8.396-4.508 10.036C3.836 13.487.658 8.424.658 5.091A4.335 4.335 0 0 1 1.98 1.976zm2.926 13.912a.36.36 0 0 0 .52 0c.521-.564 1.744-2.266 2.838-4.295.963-1.785 2.111-4.363 2.111-6.503a5.028 5.028 0 0 0-1.527-3.598A5.248 5.248 0 0 0 5.168 0h-.002a5.255 5.255 0 0 0-3.68 1.493A5.003 5.003 0 0 0-.039 5.09c0 2.14 1.148 4.718 2.11 6.503 1.093 2.029 2.318 3.735 2.835 4.295z"/></g></g></svg>
