<svg xmlns="http://www.w3.org/2000/svg" width="16" height="16" viewBox="0 0 16 16"><g><g><path fill="#595959" d="M15.06 13.647c0 .778-.634 1.412-1.412 1.412h-1.883C5.797 15.059.942 10.203.942 4.235V2.353c0-.779.633-1.412 1.412-1.412H4.81l.76 3.042-1.545.772a.471.471 0 0 0-.26.422c0 3.892 3.167 7.058 7.06 7.058a.47.47 0 0 0 .42-.26l.773-1.545 3.042.76zm.584-3.28l-3.765-.942a.474.474 0 0 0-.534.247l-.808 1.615a6.125 6.125 0 0 1-5.823-5.823l1.615-.808a.47.47 0 0 0 .246-.535L5.633.356A.47.47 0 0 0 5.177 0H2.354A2.356 2.356 0 0 0 0 2.353v1.882C0 10.722 5.278 16 11.765 16h1.883A2.356 2.356 0 0 0 16 13.647v-2.823a.47.47 0 0 0-.356-.457z"/></g></g></svg>
